<svg width="623.7" height="186.043" xmlns="http://www.w3.org/2000/svg">
    <defs>
        <clipPath clipPathUnits="userSpaceOnUse" id="a">
            <path d="M421.714 0h46.061v139.532h-46.061z" transform="matrix(.00139 0 0 -.0013 -.586 .617)"/>
        </clipPath>
        <clipPath clipPathUnits="userSpaceOnUse" id="b">
            <path d="M0 139.532h467.775V0H0Z" transform="translate(-261.693 -96.146)"/>
        </clipPath>
        <clipPath clipPathUnits="userSpaceOnUse" id="c">
            <path d="M0 139.532h467.775V0H0Z" transform="translate(-275.244 -126.744)"/>
        </clipPath>
        <clipPath clipPathUnits="userSpaceOnUse" id="d">
            <path d="M0 139.532h467.775V0H0Z"/>
        </clipPath>
        <clipPath clipPathUnits="userSpaceOnUse" id="e">
            <path d="M0 139.532h467.775V0H0Z" transform="translate(-314.668 -136.798)"/>
        </clipPath>
        <clipPath clipPathUnits="userSpaceOnUse" id="f">
            <path d="M0 139.532h467.775V0H0Z"/>
        </clipPath>
        <clipPath clipPathUnits="userSpaceOnUse" id="g">
            <path d="M0 139.532h467.775V0H0Z" transform="translate(-401.489 -124.903)"/>
        </clipPath>
        <clipPath clipPathUnits="userSpaceOnUse" id="h">
            <path d="M0 139.532h467.775V0H0Z" transform="translate(-416.51 -126.744)"/>
        </clipPath>
        <clipPath clipPathUnits="userSpaceOnUse" id="i">
            <path d="M0 139.532h467.775V0H0Z" transform="translate(-464.273 -124.903)"/>
        </clipPath>
        <clipPath clipPathUnits="userSpaceOnUse" id="j">
            <path d="M0 139.532h467.775V0H0Z" transform="translate(-255.716 -65.18)"/>
        </clipPath>
        <clipPath clipPathUnits="userSpaceOnUse" id="k">
            <path d="M0 139.532h467.775V0H0Z" transform="translate(-284.644 -58.598)"/>
        </clipPath>
        <clipPath clipPathUnits="userSpaceOnUse" id="l">
            <path d="M0 139.532h467.775V0H0Z" transform="translate(-313.406 -78.217)"/>
        </clipPath>
        <clipPath clipPathUnits="userSpaceOnUse" id="m">
            <path d="M0 139.532h467.775V0H0Z" transform="translate(-341.665 -78.217)"/>
        </clipPath>
        <clipPath clipPathUnits="userSpaceOnUse" id="n">
            <path d="M0 139.532h467.775V0H0Z" transform="translate(-377.341 -66.354)"/>
        </clipPath>
        <clipPath clipPathUnits="userSpaceOnUse" id="o">
            <path d="M0 139.532h467.775V0H0Z" transform="translate(-389 -54.28)"/>
        </clipPath>
        <clipPath clipPathUnits="userSpaceOnUse" id="p">
            <path d="M0 139.532h467.775V0H0Z" transform="translate(-213.59 -43.015)"/>
        </clipPath>
        <clipPath clipPathUnits="userSpaceOnUse" id="q">
            <path d="M0 139.532h467.775V0H0Z"/>
        </clipPath>
        <clipPath clipPathUnits="userSpaceOnUse" id="r">
            <path d="M0 139.532h467.775V0H0Z" transform="translate(-305.93 -2.363)"/>
        </clipPath>
        <clipPath clipPathUnits="userSpaceOnUse" id="s">
            <path d="M0 139.532h467.775V0H0Z" transform="translate(-319.48 -32.96)"/>
        </clipPath>
        <clipPath clipPathUnits="userSpaceOnUse" id="t">
            <path d="M0 139.532h467.775V0H0Z"/>
        </clipPath>
        <clipPath clipPathUnits="userSpaceOnUse" id="u">
            <path d="M0 139.532h467.775V0H0Z" transform="translate(-382.02 -1.321)"/>
        </clipPath>
        <clipPath clipPathUnits="userSpaceOnUse" id="v">
            <path d="M0 139.532h467.775V0H0Z" transform="translate(-439.901 -31.12)"/>
        </clipPath>
        <clipPath clipPathUnits="userSpaceOnUse" id="w">
            <path d="M0 139.532h467.775V0H0Z" transform="translate(-66.272 -98.644)"/>
        </clipPath>
    </defs>
    <path d="M0 0h7.112L3.556 10.485Zm10.485-10.056H-3.434l-2.514-7.542h-11.65l15.329 41.695h11.65L24.71-17.598H13.06Z" style="fill:#fff;fill-opacity:1;fill-rule:nonzero;stroke:none" transform="matrix(1.33333 0 0 -1.33333 275.755 35.774)"/>
    <path d="M0 0c-2.637-1.104-5.641-1.716-8.768-1.716-12.202 0-21.46 9.32-21.46 21.522 0 12.201 9.258 21.521 21.46 21.521 3.127 0 6.131-.613 8.768-1.717V27.653c-2.023 1.902-5.089 3.25-8.768 3.25-6.131 0-10.73-5.027-10.73-11.097 0-6.131 4.599-11.099 10.73-11.099 3.679 0 6.867 1.35 8.768 3.127z" style="fill:#fff;fill-opacity:1;fill-rule:nonzero;stroke:none" transform="matrix(1.33333 0 0 -1.33333 348.925 57.848)" clip-path="url(#b)"/>
    <path d="M0 0h-9.627v10.055H20.05V0h-9.627v-31.64H0Z" style="fill:#fff;fill-opacity:1;fill-rule:nonzero;stroke:none" transform="matrix(1.33333 0 0 -1.33333 366.992 17.05)" clip-path="url(#c)"/>
    <path d="M300.749 136.798h10.424V95.104h-10.424z" style="fill:#fff;fill-opacity:1;fill-rule:nonzero;stroke:none" transform="matrix(1.33333 0 0 -1.33333 0 186.043)" clip-path="url(#d)"/>
    <path d="M0 0h11.65l9.504-29.676L30.658 0h11.65L26.979-41.694h-11.65z" style="fill:#fff;fill-opacity:1;fill-rule:nonzero;stroke:none" transform="matrix(1.33333 0 0 -1.33333 419.557 3.645)" clip-path="url(#e)"/>
    <path d="M360.469 136.798h10.423V95.104h-10.423z" style="fill:#fff;fill-opacity:1;fill-rule:nonzero;stroke:none" transform="matrix(1.33333 0 0 -1.33333 0 186.043)" clip-path="url(#f)"/>
    <path d="M0 0c-2.084 1.35-5.948 2.821-8.952 2.821-3.005 0-4.047-1.226-4.047-2.636 0-.981.981-2.024 2.698-3.004l4.721-2.699c5.518-3.188 7.787-7.05 7.787-11.895 0-6.866-4.415-13.06-14.531-13.06-3.986 0-7.91.859-10.67 1.962v11.344c2.27-1.779 6.561-3.557 10.24-3.557 2.453 0 3.863.92 3.863 2.698 0 .98-.797 1.901-2.759 3.005l-4.967 2.82C-22.441-8.89-24.158-5.15-24.158-.183c0 6.07 3.74 12.753 15.267 12.753 2.882 0 6.193-.613 8.891-1.716z" style="fill:#fff;fill-opacity:1;fill-rule:nonzero;stroke:none" transform="matrix(1.33333 0 0 -1.33333 535.319 19.505)" clip-path="url(#g)"/>
    <path d="M0 0h-9.627v10.055H20.05V0h-9.627v-31.64H0Z" style="fill:#fff;fill-opacity:1;fill-rule:nonzero;stroke:none" transform="matrix(1.33333 0 0 -1.33333 555.347 17.05)" clip-path="url(#h)"/>
    <path d="M0 0c-2.084 1.35-5.948 2.821-8.952 2.821-3.005 0-4.047-1.226-4.047-2.636 0-.981.981-2.024 2.698-3.004l4.721-2.699c5.518-3.188 7.787-7.05 7.787-11.895 0-6.866-4.415-13.06-14.531-13.06-3.986 0-7.91.859-10.669 1.962v11.344c2.269-1.779 6.56-3.557 10.239-3.557 2.453 0 3.863.92 3.863 2.698 0 .98-.797 1.901-2.759 3.005l-4.967 2.82C-22.441-8.89-24.158-5.15-24.158-.183c0 6.07 3.74 12.753 15.267 12.753 2.882 0 6.193-.613 8.891-1.716z" style="fill:#fff;fill-opacity:1;fill-rule:nonzero;stroke:none" transform="matrix(1.33333 0 0 -1.33333 619.03 19.505)" clip-path="url(#i)"/>
    <path d="M0 0v-10.899h-4.779v28.505h15.762v-4.569H0V4.569h10.145V0Z" style="fill:#fff;fill-opacity:1;fill-rule:nonzero;stroke:none" transform="matrix(1.33333 0 0 -1.33333 340.955 99.136)" clip-path="url(#j)"/>
    <path d="M0 0c5.492 0 9.726 4.401 9.726 9.936 0 5.534-4.234 9.935-9.726 9.935-5.576 0-9.768-4.401-9.768-9.935C-9.768 4.401-5.576 0 0 0m0 24.649c8.342 0 14.672-6.372 14.672-14.713C14.672 1.594 8.342-4.778 0-4.778S-14.672 1.594-14.672 9.936c0 8.341 6.33 14.713 14.672 14.713" style="fill:#fff;fill-opacity:1;fill-rule:nonzero;stroke:none" transform="matrix(1.33333 0 0 -1.33333 379.525 107.912)" clip-path="url(#k)"/>
    <path d="M0 0h-4.318v-8.09H0c2.473 0 4.276 1.424 4.276 4.025C4.276-1.467 2.473 0 0 0m-9.097 4.569H.042c5.408 0 9.181-3.017 9.181-8.132 0-4.108-2.474-6.456-5.535-7.294 3.522-1.718 6.037-6.623 6.876-13.08H5.617c-1.132 6.666-4.15 11.278-7.756 11.278h-2.179v-11.278h-4.779z" style="fill:#fff;fill-opacity:1;fill-rule:nonzero;stroke:none" transform="matrix(1.33333 0 0 -1.33333 417.875 81.753)" clip-path="url(#l)"/>
    <path d="M0 0h-7.252v4.569h19.283V0H4.779v-23.937H0Z" style="fill:#fff;fill-opacity:1;fill-rule:nonzero;stroke:none" transform="matrix(1.33333 0 0 -1.33333 455.553 81.753)" clip-path="url(#m)"/>
    <path d="M0 0h-14.63v-12.073h-4.779v28.506h4.779V4.569H0v11.864h4.779v-28.506H0Z" style="fill:#fff;fill-opacity:1;fill-rule:nonzero;stroke:none" transform="matrix(1.33333 0 0 -1.33333 503.122 97.57)" clip-path="url(#n)"/>
    <path d="M0 0v28.506h15.762v-4.569H4.778v-7.294h10.145v-4.57H4.778V4.569h10.984V0Z" style="fill:#fff;fill-opacity:1;fill-rule:nonzero;stroke:none" transform="matrix(1.33333 0 0 -1.33333 518.667 113.668)" clip-path="url(#o)"/>
    <path d="M0 0h11.65l9.504-29.677L30.658 0h11.65L26.979-41.694h-11.65z" style="fill:#fff;fill-opacity:1;fill-rule:nonzero;stroke:none" transform="matrix(1.33333 0 0 -1.33333 284.788 128.689)" clip-path="url(#p)"/>
    <path d="M259.392 43.015h10.424V1.321h-10.424z" style="fill:#fff;fill-opacity:1;fill-rule:nonzero;stroke:none" transform="matrix(1.33333 0 0 -1.33333 0 186.043)" clip-path="url(#q)"/>
    <path d="M0 0c-2.637-1.104-5.641-1.717-8.768-1.717-12.202 0-21.46 9.321-21.46 21.522 0 12.201 9.258 21.521 21.46 21.521 3.127 0 6.131-.613 8.768-1.716V27.653c-2.023 1.901-5.089 3.25-8.768 3.25-6.131 0-10.73-5.028-10.73-11.098 0-6.131 4.599-11.098 10.73-11.098 3.679 0 6.868 1.349 8.768 3.127z" style="fill:#fff;fill-opacity:1;fill-rule:nonzero;stroke:none" transform="matrix(1.33333 0 0 -1.33333 407.907 182.892)" clip-path="url(#r)"/>
    <path d="M0 0h-9.626v10.056H20.05V0h-9.626v-31.639H0Z" style="fill:#fff;fill-opacity:1;fill-rule:nonzero;stroke:none" transform="matrix(1.33333 0 0 -1.33333 425.974 142.097)" clip-path="url(#s)"/>
    <path d="M344.986 43.015h10.423V1.321h-10.423z" style="fill:#fff;fill-opacity:1;fill-rule:nonzero;stroke:none" transform="matrix(1.33333 0 0 -1.33333 0 186.043)" clip-path="url(#t)"/>
    <path d="m0 0-7.848 23.116V0h-10.423v41.694h12.875l9.934-28.388 9.933 28.388h12.815V0H16.862v23.178L9.014 0Z" style="fill:#fff;fill-opacity:1;fill-rule:nonzero;stroke:none" transform="matrix(1.33333 0 0 -1.33333 509.36 184.281)" clip-path="url(#u)"/>
    <path d="M0 0c-2.084 1.349-5.948 2.82-8.952 2.82-3.005 0-4.047-1.225-4.047-2.636 0-.981.981-2.024 2.698-3.004l4.721-2.699c5.518-3.187 7.787-7.05 7.787-11.894 0-6.867-4.415-13.061-14.531-13.061-3.986 0-7.91.859-10.669 1.962v11.344c2.269-1.778 6.56-3.557 10.239-3.557 2.453 0 3.863.92 3.863 2.699 0 .98-.797 1.9-2.759 3.004l-4.966 2.82c-5.825 3.311-7.542 7.052-7.542 12.018 0 6.07 3.74 12.753 15.267 12.753 2.882 0 6.193-.613 8.891-1.715z" style="fill:#fff;fill-opacity:1;fill-rule:nonzero;stroke:none" transform="matrix(1.33333 0 0 -1.33333 586.535 144.55)" clip-path="url(#v)"/>
    <path d="M0 0h-52.287c1.474 14.608 13.841 26.05 28.83 26.05 9.361 0 18.002-4.447 23.457-11.979zm76.855 7.28L64.403 4.154c.577-2.3.87-4.682.87-7.082 0-7.976-3.182-15.413-8.96-20.938L12.838-67.545l.001 81.616c5.455 7.532 14.096 11.979 23.456 11.979a29.41 29.41 0 0 0 4.316-.319 28.768 28.768 0 0 0 5.95-1.55l4.549 12.006a41.75 41.75 0 0 1-14.815 2.701c-11.418 0-22.094-4.578-29.876-12.554-8.605 8.82-20.75 13.485-33.525 12.398-21.821-1.856-38.633-20.708-38.156-42.601.2-9.19 3.338-17.836 8.966-24.934h-.009l43.468-54.085v18.241l-32.904 43.206a28.688 28.688 0 0 0-1.443 1.895l-.067.089.004.001a28.609 28.609 0 0 0-3.455 6.618H0l-.001-85.807 65.248 65.558c8.297 7.965 12.865 18.672 12.865 30.159 0 3.452-.423 6.887-1.257 10.208" style="fill:#fff;fill-opacity:1;fill-rule:nonzero;stroke:none" transform="matrix(1.33333 0 0 -1.33333 88.363 54.517)" clip-path="url(#w)"/>
</svg>
