<svg width="197.275" height="187.635" xmlns="http://www.w3.org/2000/svg">
    <defs>
        <clipPath clipPathUnits="userSpaceOnUse" id="a">
            <path d="M0 0h147.956v24.391H0Z" transform="matrix(.00139 0 0 -.0013 .453 .032)"/>
        </clipPath>
        <clipPath clipPathUnits="userSpaceOnUse" id="b">
            <path d="M0 140.726h147.956V0H0Z" transform="translate(-67.558 -100.241)"/>
        </clipPath>
    </defs>
    <path d="M0 0h-52.287c1.473 14.608 13.84 26.049 28.83 26.049 9.361 0 18.002-4.446 23.457-11.978zm76.855 7.28L64.403 4.154c.577-2.3.87-4.683.87-7.082 0-7.977-3.182-15.413-8.96-20.938L12.838-67.545v81.616c5.456 7.532 14.097 11.978 23.457 11.978a28.848 28.848 0 0 0 10.266-1.868l4.549 12.005a41.623 41.623 0 0 1-8.608 2.243 42.269 42.269 0 0 1-6.207.459c-11.419 0-22.094-4.579-29.876-12.555-8.606 8.821-20.75 13.486-33.526 12.399-21.82-1.857-38.633-20.708-38.155-42.602.2-9.189 3.338-17.836 8.965-24.933h-.008l43.467-54.085v18.241l-32.903 43.206a28.786 28.786 0 0 0-1.444 1.895l-.067.088.005.001a28.577 28.577 0 0 0-3.455 6.619H0l-.001-85.807 65.248 65.558c8.296 7.964 12.864 18.671 12.864 30.159 0 3.452-.422 6.887-1.256 10.208" style="fill:#fff;fill-opacity:1;fill-rule:nonzero;stroke:none" transform="matrix(1.33333 0 0 -1.33333 90.078 53.98)" clip-path="url(#b)"/>
</svg>
